# xmcd
#
# Track frame offsets: 
#        150
#        11955
#        16120
#        23769
#        28983
#        36493
#        47316
#        55807
#        63026
#        74120
#        80805
#        88561
#        95653
#        105762
#        119244
#        125526
#        134459
#        142712
#        156338
#        162395
#        167570
#        173945
#
# Disc length: 2541 seconds
#
# Revision: 0
# Processed by: cddbd v1.5.2PL0 Copyright (c) Steve Scherf et al.
# Submitted via: ExactAudioCopy v0.99pb4
#
DISCID=2e09eb16
DTITLE=Leigh Newton - Christmas in the Scrub
DYEAR=1996
DGENRE=Folk
TTITLE0=Christmas in the scrub
TTITLE1=Come all you shepherds
TTITLE2=Off we go to Bethlehem
TTITLE3=Five days of Christmas
TTITLE4=Report of the stockmen
TTITLE5=Mary and Joseph's lullaby
TTITLE6=Henry "Lippai"
TTITLE7=What do you give to a kid from God?
TTITLE8=Mary's child
TTITLE9=For didgeridoo
TTITLE10=The cat and the mouse carol
TTITLE11=Merry Christmas (Sun gleams bright)
TTITLE12=Donkey, donkey
TTITLE13=Shepherd's dream
TTITLE14=Shepherd's vigil
TTITLE15=Christmas where the gum trees grow
TTITLE16=Boomerang of flowers
TTITLE17=Joiner's workshop
TTITLE18=The three drovers
TTITLE19=Child at the door
TTITLE20=Christmas lullaby
TTITLE21=Colours of Christmas
EXTD=
EXTT0=
EXTT1=
EXTT2=
EXTT3=
EXTT4=
EXTT5=
EXTT6=
EXTT7=
EXTT8=
EXTT9=
EXTT10=
EXTT11=
EXTT12=
EXTT13=
EXTT14=
EXTT15=
EXTT16=
EXTT17=
EXTT18=
EXTT19=
EXTT20=
EXTT21=
PLAYORDER=
